<svg id="Layer_1" data-name="Layer 1" xmlns="http://www.w3.org/2000/svg" viewBox="0 0 111.18 127"><defs><style>.cls-1{fill:#df2442;}.cls-2{fill:#fff;}.cls-3{fill:#59bebc;}.cls-4{fill:#58bebc;}</style></defs><polygon class="cls-1" points="5.48 20.75 111.18 5.84 111 127 6.94 110.94 5.48 20.75"/><polygon class="cls-2" points="0 16.73 104.61 0 100.59 117.58 0.36 104.36 0 16.73"/><path class="cls-3" d="M78.8,42.17,103,30.26c.2.73.27,67.56.11,69.57-.21-.07-.4-.13-.58-.21l-6.43-3.18c-5.49-2.71-11-5.43-16.48-8.11A1.2,1.2,0,0,1,78.79,87q0-22,0-44Z" transform="translate(-17.11 -6.53)"/><path class="cls-4" d="M73.75,85.43l-20-9.86v-.79q0-9.72,0-19.44a1.11,1.11,0,0,1,.71-1.17Q63.76,49.61,73,45c.21-.1.43-.18.71-.3Z" transform="translate(-17.11 -6.53)"/><path class="cls-1" d="M52.45,102.76H29V77.34a2.85,2.85,0,0,1,.4,0c3.09,0,6.18,0,9.27,0A14,14,0,0,1,52.43,91c0,3.68,0,7.36,0,11Z" transform="translate(-17.11 -6.53)"/><path class="cls-1" d="M29,73.69V55.13c.23,0,.44-.06.65-.06,2.9,0,5.8,0,8.7,0a9.32,9.32,0,0,1,1.84,18.44,7.78,7.78,0,0,1-1.6.19c-3,0-6.07,0-9.1,0Z" transform="translate(-17.11 -6.53)"/><path class="cls-3" d="M62.23,29.18a7.59,7.59,0,1,1-7.67,7.47A7.53,7.53,0,0,1,62.23,29.18Z" transform="translate(-17.11 -6.53)"/></svg>